<?xml version="1.0" encoding="utf-8" standalone="no"?>
<!DOCTYPE svg PUBLIC "-//W3C//DTD SVG 1.1//EN"
  "http://www.w3.org/Graphics/SVG/1.1/DTD/svg11.dtd">
<!-- Created with matplotlib (http://matplotlib.org/) -->
<svg height="216pt" version="1.1" viewBox="0 0 648 216" width="648pt" xmlns="http://www.w3.org/2000/svg" xmlns:xlink="http://www.w3.org/1999/xlink">
 <defs>
  <style type="text/css">
*{stroke-linecap:butt;stroke-linejoin:round;}
  </style>
 </defs>
 <g id="figure_1">
  <g id="patch_1">
   <path d="M 0 216 
L 648 216 
L 648 0 
L 0 0 
z
" style="fill:#ffffff;"/>
  </g>
  <g id="axes_1">
   <g id="patch_2">
    <path d="M 47.81 188.12 
L 208.065 188.12 
L 208.065 26.88 
L 47.81 26.88 
z
" style="fill:#ffffff;"/>
   </g>
   <g id="matplotlib.axis_1">
    <g id="xtick_1">
     <g id="line2d_1">
      <defs>
       <path d="M 0 0 
L 0 3.5 
" id="mc43d81867d" style="stroke:#000000;stroke-width:0.8;"/>
      </defs>
      <g>
       <use style="stroke:#000000;stroke-width:0.8;" x="55.094318" xlink:href="#mc43d81867d" y="188.12"/>
      </g>
     </g>
     <g id="text_1">
      <!-- 0 -->
      <defs>
       <path d="M 31.78125 66.40625 
Q 24.171875 66.40625 20.328125 58.90625 
Q 16.5 51.421875 16.5 36.375 
Q 16.5 21.390625 20.328125 13.890625 
Q 24.171875 6.390625 31.78125 6.390625 
Q 39.453125 6.390625 43.28125 13.890625 
Q 47.125 21.390625 47.125 36.375 
Q 47.125 51.421875 43.28125 58.90625 
Q 39.453125 66.40625 31.78125 66.40625 
z
M 31.78125 74.21875 
Q 44.046875 74.21875 50.515625 64.515625 
Q 56.984375 54.828125 56.984375 36.375 
Q 56.984375 17.96875 50.515625 8.265625 
Q 44.046875 -1.421875 31.78125 -1.421875 
Q 19.53125 -1.421875 13.0625 8.265625 
Q 6.59375 17.96875 6.59375 36.375 
Q 6.59375 54.828125 13.0625 64.515625 
Q 19.53125 74.21875 31.78125 74.21875 
z
" id="DejaVuSans-30"/>
      </defs>
      <g transform="translate(51.913068 202.718437)scale(0.1 -0.1)">
       <use xlink:href="#DejaVuSans-30"/>
      </g>
     </g>
    </g>
    <g id="xtick_2">
     <g id="line2d_2">
      <g>
       <use style="stroke:#000000;stroke-width:0.8;" x="103.656439" xlink:href="#mc43d81867d" y="188.12"/>
      </g>
     </g>
     <g id="text_2">
      <!-- 5 -->
      <defs>
       <path d="M 10.796875 72.90625 
L 49.515625 72.90625 
L 49.515625 64.59375 
L 19.828125 64.59375 
L 19.828125 46.734375 
Q 21.96875 47.46875 24.109375 47.828125 
Q 26.265625 48.1875 28.421875 48.1875 
Q 40.625 48.1875 47.75 41.5 
Q 54.890625 34.8125 54.890625 23.390625 
Q 54.890625 11.625 47.5625 5.09375 
Q 40.234375 -1.421875 26.90625 -1.421875 
Q 22.3125 -1.421875 17.546875 -0.640625 
Q 12.796875 0.140625 7.71875 1.703125 
L 7.71875 11.625 
Q 12.109375 9.234375 16.796875 8.0625 
Q 21.484375 6.890625 26.703125 6.890625 
Q 35.15625 6.890625 40.078125 11.328125 
Q 45.015625 15.765625 45.015625 23.390625 
Q 45.015625 31 40.078125 35.4375 
Q 35.15625 39.890625 26.703125 39.890625 
Q 22.75 39.890625 18.8125 39.015625 
Q 14.890625 38.140625 10.796875 36.28125 
z
" id="DejaVuSans-35"/>
      </defs>
      <g transform="translate(100.475189 202.718437)scale(0.1 -0.1)">
       <use xlink:href="#DejaVuSans-35"/>
      </g>
     </g>
    </g>
    <g id="xtick_3">
     <g id="line2d_3">
      <g>
       <use style="stroke:#000000;stroke-width:0.8;" x="152.218561" xlink:href="#mc43d81867d" y="188.12"/>
      </g>
     </g>
     <g id="text_3">
      <!-- 10 -->
      <defs>
       <path d="M 12.40625 8.296875 
L 28.515625 8.296875 
L 28.515625 63.921875 
L 10.984375 60.40625 
L 10.984375 69.390625 
L 28.421875 72.90625 
L 38.28125 72.90625 
L 38.28125 8.296875 
L 54.390625 8.296875 
L 54.390625 0 
L 12.40625 0 
z
" id="DejaVuSans-31"/>
      </defs>
      <g transform="translate(145.856061 202.718437)scale(0.1 -0.1)">
       <use xlink:href="#DejaVuSans-31"/>
       <use x="63.623047" xlink:href="#DejaVuSans-30"/>
      </g>
     </g>
    </g>
    <g id="xtick_4">
     <g id="line2d_4">
      <g>
       <use style="stroke:#000000;stroke-width:0.8;" x="200.780682" xlink:href="#mc43d81867d" y="188.12"/>
      </g>
     </g>
     <g id="text_4">
      <!-- 15 -->
      <g transform="translate(194.418182 202.718437)scale(0.1 -0.1)">
       <use xlink:href="#DejaVuSans-31"/>
       <use x="63.623047" xlink:href="#DejaVuSans-35"/>
      </g>
     </g>
    </g>
   </g>
   <g id="matplotlib.axis_2">
    <g id="ytick_1">
     <g id="line2d_5">
      <defs>
       <path d="M 0 0 
L -3.5 0 
" id="m5168413702" style="stroke:#000000;stroke-width:0.8;"/>
      </defs>
      <g>
       <use style="stroke:#000000;stroke-width:0.8;" x="47.81" xlink:href="#m5168413702" y="180.872026"/>
      </g>
     </g>
     <g id="text_5">
      <!-- 0.0 -->
      <defs>
       <path d="M 10.6875 12.40625 
L 21 12.40625 
L 21 0 
L 10.6875 0 
z
" id="DejaVuSans-2e"/>
      </defs>
      <g transform="translate(24.906875 184.671245)scale(0.1 -0.1)">
       <use xlink:href="#DejaVuSans-30"/>
       <use x="63.623047" xlink:href="#DejaVuSans-2e"/>
       <use x="95.410156" xlink:href="#DejaVuSans-30"/>
      </g>
     </g>
    </g>
    <g id="ytick_2">
     <g id="line2d_6">
      <g>
       <use style="stroke:#000000;stroke-width:0.8;" x="47.81" xlink:href="#m5168413702" y="151.523216"/>
      </g>
     </g>
     <g id="text_6">
      <!-- 0.2 -->
      <defs>
       <path d="M 19.1875 8.296875 
L 53.609375 8.296875 
L 53.609375 0 
L 7.328125 0 
L 7.328125 8.296875 
Q 12.9375 14.109375 22.625 23.890625 
Q 32.328125 33.6875 34.8125 36.53125 
Q 39.546875 41.84375 41.421875 45.53125 
Q 43.3125 49.21875 43.3125 52.78125 
Q 43.3125 58.59375 39.234375 62.25 
Q 35.15625 65.921875 28.609375 65.921875 
Q 23.96875 65.921875 18.8125 64.3125 
Q 13.671875 62.703125 7.8125 59.421875 
L 7.8125 69.390625 
Q 13.765625 71.78125 18.9375 73 
Q 24.125 74.21875 28.421875 74.21875 
Q 39.75 74.21875 46.484375 68.546875 
Q 53.21875 62.890625 53.21875 53.421875 
Q 53.21875 48.921875 51.53125 44.890625 
Q 49.859375 40.875 45.40625 35.40625 
Q 44.1875 33.984375 37.640625 27.21875 
Q 31.109375 20.453125 19.1875 8.296875 
z
" id="DejaVuSans-32"/>
      </defs>
      <g transform="translate(24.906875 155.322434)scale(0.1 -0.1)">
       <use xlink:href="#DejaVuSans-30"/>
       <use x="63.623047" xlink:href="#DejaVuSans-2e"/>
       <use x="95.410156" xlink:href="#DejaVuSans-32"/>
      </g>
     </g>
    </g>
    <g id="ytick_3">
     <g id="line2d_7">
      <g>
       <use style="stroke:#000000;stroke-width:0.8;" x="47.81" xlink:href="#m5168413702" y="122.174405"/>
      </g>
     </g>
     <g id="text_7">
      <!-- 0.4 -->
      <defs>
       <path d="M 37.796875 64.3125 
L 12.890625 25.390625 
L 37.796875 25.390625 
z
M 35.203125 72.90625 
L 47.609375 72.90625 
L 47.609375 25.390625 
L 58.015625 25.390625 
L 58.015625 17.1875 
L 47.609375 17.1875 
L 47.609375 0 
L 37.796875 0 
L 37.796875 17.1875 
L 4.890625 17.1875 
L 4.890625 26.703125 
z
" id="DejaVuSans-34"/>
      </defs>
      <g transform="translate(24.906875 125.973624)scale(0.1 -0.1)">
       <use xlink:href="#DejaVuSans-30"/>
       <use x="63.623047" xlink:href="#DejaVuSans-2e"/>
       <use x="95.410156" xlink:href="#DejaVuSans-34"/>
      </g>
     </g>
    </g>
    <g id="ytick_4">
     <g id="line2d_8">
      <g>
       <use style="stroke:#000000;stroke-width:0.8;" x="47.81" xlink:href="#m5168413702" y="92.825595"/>
      </g>
     </g>
     <g id="text_8">
      <!-- 0.6 -->
      <defs>
       <path d="M 33.015625 40.375 
Q 26.375 40.375 22.484375 35.828125 
Q 18.609375 31.296875 18.609375 23.390625 
Q 18.609375 15.53125 22.484375 10.953125 
Q 26.375 6.390625 33.015625 6.390625 
Q 39.65625 6.390625 43.53125 10.953125 
Q 47.40625 15.53125 47.40625 23.390625 
Q 47.40625 31.296875 43.53125 35.828125 
Q 39.65625 40.375 33.015625 40.375 
z
M 52.59375 71.296875 
L 52.59375 62.3125 
Q 48.875 64.0625 45.09375 64.984375 
Q 41.3125 65.921875 37.59375 65.921875 
Q 27.828125 65.921875 22.671875 59.328125 
Q 17.53125 52.734375 16.796875 39.40625 
Q 19.671875 43.65625 24.015625 45.921875 
Q 28.375 48.1875 33.59375 48.1875 
Q 44.578125 48.1875 50.953125 41.515625 
Q 57.328125 34.859375 57.328125 23.390625 
Q 57.328125 12.15625 50.6875 5.359375 
Q 44.046875 -1.421875 33.015625 -1.421875 
Q 20.359375 -1.421875 13.671875 8.265625 
Q 6.984375 17.96875 6.984375 36.375 
Q 6.984375 53.65625 15.1875 63.9375 
Q 23.390625 74.21875 37.203125 74.21875 
Q 40.921875 74.21875 44.703125 73.484375 
Q 48.484375 72.75 52.59375 71.296875 
z
" id="DejaVuSans-36"/>
      </defs>
      <g transform="translate(24.906875 96.624814)scale(0.1 -0.1)">
       <use xlink:href="#DejaVuSans-30"/>
       <use x="63.623047" xlink:href="#DejaVuSans-2e"/>
       <use x="95.410156" xlink:href="#DejaVuSans-36"/>
      </g>
     </g>
    </g>
    <g id="ytick_5">
     <g id="line2d_9">
      <g>
       <use style="stroke:#000000;stroke-width:0.8;" x="47.81" xlink:href="#m5168413702" y="63.476784"/>
      </g>
     </g>
     <g id="text_9">
      <!-- 0.8 -->
      <defs>
       <path d="M 31.78125 34.625 
Q 24.75 34.625 20.71875 30.859375 
Q 16.703125 27.09375 16.703125 20.515625 
Q 16.703125 13.921875 20.71875 10.15625 
Q 24.75 6.390625 31.78125 6.390625 
Q 38.8125 6.390625 42.859375 10.171875 
Q 46.921875 13.96875 46.921875 20.515625 
Q 46.921875 27.09375 42.890625 30.859375 
Q 38.875 34.625 31.78125 34.625 
z
M 21.921875 38.8125 
Q 15.578125 40.375 12.03125 44.71875 
Q 8.5 49.078125 8.5 55.328125 
Q 8.5 64.0625 14.71875 69.140625 
Q 20.953125 74.21875 31.78125 74.21875 
Q 42.671875 74.21875 48.875 69.140625 
Q 55.078125 64.0625 55.078125 55.328125 
Q 55.078125 49.078125 51.53125 44.71875 
Q 48 40.375 41.703125 38.8125 
Q 48.828125 37.15625 52.796875 32.3125 
Q 56.78125 27.484375 56.78125 20.515625 
Q 56.78125 9.90625 50.3125 4.234375 
Q 43.84375 -1.421875 31.78125 -1.421875 
Q 19.734375 -1.421875 13.25 4.234375 
Q 6.78125 9.90625 6.78125 20.515625 
Q 6.78125 27.484375 10.78125 32.3125 
Q 14.796875 37.15625 21.921875 38.8125 
z
M 18.3125 54.390625 
Q 18.3125 48.734375 21.84375 45.5625 
Q 25.390625 42.390625 31.78125 42.390625 
Q 38.140625 42.390625 41.71875 45.5625 
Q 45.3125 48.734375 45.3125 54.390625 
Q 45.3125 60.0625 41.71875 63.234375 
Q 38.140625 66.40625 31.78125 66.40625 
Q 25.390625 66.40625 21.84375 63.234375 
Q 18.3125 60.0625 18.3125 54.390625 
z
" id="DejaVuSans-38"/>
      </defs>
      <g transform="translate(24.906875 67.276003)scale(0.1 -0.1)">
       <use xlink:href="#DejaVuSans-30"/>
       <use x="63.623047" xlink:href="#DejaVuSans-2e"/>
       <use x="95.410156" xlink:href="#DejaVuSans-38"/>
      </g>
     </g>
    </g>
    <g id="ytick_6">
     <g id="line2d_10">
      <g>
       <use style="stroke:#000000;stroke-width:0.8;" x="47.81" xlink:href="#m5168413702" y="34.127974"/>
      </g>
     </g>
     <g id="text_10">
      <!-- 1.0 -->
      <g transform="translate(24.906875 37.927193)scale(0.1 -0.1)">
       <use xlink:href="#DejaVuSans-31"/>
       <use x="63.623047" xlink:href="#DejaVuSans-2e"/>
       <use x="95.410156" xlink:href="#DejaVuSans-30"/>
      </g>
     </g>
    </g>
    <g id="text_11">
     <!-- Probability -->
     <defs>
      <path d="M 19.671875 64.796875 
L 19.671875 37.40625 
L 32.078125 37.40625 
Q 38.96875 37.40625 42.71875 40.96875 
Q 46.484375 44.53125 46.484375 51.125 
Q 46.484375 57.671875 42.71875 61.234375 
Q 38.96875 64.796875 32.078125 64.796875 
z
M 9.8125 72.90625 
L 32.078125 72.90625 
Q 44.34375 72.90625 50.609375 67.359375 
Q 56.890625 61.8125 56.890625 51.125 
Q 56.890625 40.328125 50.609375 34.8125 
Q 44.34375 29.296875 32.078125 29.296875 
L 19.671875 29.296875 
L 19.671875 0 
L 9.8125 0 
z
" id="DejaVuSans-50"/>
      <path d="M 41.109375 46.296875 
Q 39.59375 47.171875 37.8125 47.578125 
Q 36.03125 48 33.890625 48 
Q 26.265625 48 22.1875 43.046875 
Q 18.109375 38.09375 18.109375 28.8125 
L 18.109375 0 
L 9.078125 0 
L 9.078125 54.6875 
L 18.109375 54.6875 
L 18.109375 46.1875 
Q 20.953125 51.171875 25.484375 53.578125 
Q 30.03125 56 36.53125 56 
Q 37.453125 56 38.578125 55.875 
Q 39.703125 55.765625 41.0625 55.515625 
z
" id="DejaVuSans-72"/>
      <path d="M 30.609375 48.390625 
Q 23.390625 48.390625 19.1875 42.75 
Q 14.984375 37.109375 14.984375 27.296875 
Q 14.984375 17.484375 19.15625 11.84375 
Q 23.34375 6.203125 30.609375 6.203125 
Q 37.796875 6.203125 41.984375 11.859375 
Q 46.1875 17.53125 46.1875 27.296875 
Q 46.1875 37.015625 41.984375 42.703125 
Q 37.796875 48.390625 30.609375 48.390625 
z
M 30.609375 56 
Q 42.328125 56 49.015625 48.375 
Q 55.71875 40.765625 55.71875 27.296875 
Q 55.71875 13.875 49.015625 6.21875 
Q 42.328125 -1.421875 30.609375 -1.421875 
Q 18.84375 -1.421875 12.171875 6.21875 
Q 5.515625 13.875 5.515625 27.296875 
Q 5.515625 40.765625 12.171875 48.375 
Q 18.84375 56 30.609375 56 
z
" id="DejaVuSans-6f"/>
      <path d="M 48.6875 27.296875 
Q 48.6875 37.203125 44.609375 42.84375 
Q 40.53125 48.484375 33.40625 48.484375 
Q 26.265625 48.484375 22.1875 42.84375 
Q 18.109375 37.203125 18.109375 27.296875 
Q 18.109375 17.390625 22.1875 11.75 
Q 26.265625 6.109375 33.40625 6.109375 
Q 40.53125 6.109375 44.609375 11.75 
Q 48.6875 17.390625 48.6875 27.296875 
z
M 18.109375 46.390625 
Q 20.953125 51.265625 25.265625 53.625 
Q 29.59375 56 35.59375 56 
Q 45.5625 56 51.78125 48.09375 
Q 58.015625 40.1875 58.015625 27.296875 
Q 58.015625 14.40625 51.78125 6.484375 
Q 45.5625 -1.421875 35.59375 -1.421875 
Q 29.59375 -1.421875 25.265625 0.953125 
Q 20.953125 3.328125 18.109375 8.203125 
L 18.109375 0 
L 9.078125 0 
L 9.078125 75.984375 
L 18.109375 75.984375 
z
" id="DejaVuSans-62"/>
      <path d="M 34.28125 27.484375 
Q 23.390625 27.484375 19.1875 25 
Q 14.984375 22.515625 14.984375 16.5 
Q 14.984375 11.71875 18.140625 8.90625 
Q 21.296875 6.109375 26.703125 6.109375 
Q 34.1875 6.109375 38.703125 11.40625 
Q 43.21875 16.703125 43.21875 25.484375 
L 43.21875 27.484375 
z
M 52.203125 31.203125 
L 52.203125 0 
L 43.21875 0 
L 43.21875 8.296875 
Q 40.140625 3.328125 35.546875 0.953125 
Q 30.953125 -1.421875 24.3125 -1.421875 
Q 15.921875 -1.421875 10.953125 3.296875 
Q 6 8.015625 6 15.921875 
Q 6 25.140625 12.171875 29.828125 
Q 18.359375 34.515625 30.609375 34.515625 
L 43.21875 34.515625 
L 43.21875 35.40625 
Q 43.21875 41.609375 39.140625 45 
Q 35.0625 48.390625 27.6875 48.390625 
Q 23 48.390625 18.546875 47.265625 
Q 14.109375 46.140625 10.015625 43.890625 
L 10.015625 52.203125 
Q 14.9375 54.109375 19.578125 55.046875 
Q 24.21875 56 28.609375 56 
Q 40.484375 56 46.34375 49.84375 
Q 52.203125 43.703125 52.203125 31.203125 
z
" id="DejaVuSans-61"/>
      <path d="M 9.421875 54.6875 
L 18.40625 54.6875 
L 18.40625 0 
L 9.421875 0 
z
M 9.421875 75.984375 
L 18.40625 75.984375 
L 18.40625 64.59375 
L 9.421875 64.59375 
z
" id="DejaVuSans-69"/>
      <path d="M 9.421875 75.984375 
L 18.40625 75.984375 
L 18.40625 0 
L 9.421875 0 
z
" id="DejaVuSans-6c"/>
      <path d="M 18.3125 70.21875 
L 18.3125 54.6875 
L 36.8125 54.6875 
L 36.8125 47.703125 
L 18.3125 47.703125 
L 18.3125 18.015625 
Q 18.3125 11.328125 20.140625 9.421875 
Q 21.96875 7.515625 27.59375 7.515625 
L 36.8125 7.515625 
L 36.8125 0 
L 27.59375 0 
Q 17.1875 0 13.234375 3.875 
Q 9.28125 7.765625 9.28125 18.015625 
L 9.28125 47.703125 
L 2.6875 47.703125 
L 2.6875 54.6875 
L 9.28125 54.6875 
L 9.28125 70.21875 
z
" id="DejaVuSans-74"/>
      <path d="M 32.171875 -5.078125 
Q 28.375 -14.84375 24.75 -17.8125 
Q 21.140625 -20.796875 15.09375 -20.796875 
L 7.90625 -20.796875 
L 7.90625 -13.28125 
L 13.1875 -13.28125 
Q 16.890625 -13.28125 18.9375 -11.515625 
Q 21 -9.765625 23.484375 -3.21875 
L 25.09375 0.875 
L 2.984375 54.6875 
L 12.5 54.6875 
L 29.59375 11.921875 
L 46.6875 54.6875 
L 56.203125 54.6875 
z
" id="DejaVuSans-79"/>
     </defs>
     <g transform="translate(18.827187 134.126563)rotate(-90)scale(0.1 -0.1)">
      <use xlink:href="#DejaVuSans-50"/>
      <use x="60.287109" xlink:href="#DejaVuSans-72"/>
      <use x="101.369141" xlink:href="#DejaVuSans-6f"/>
      <use x="162.550781" xlink:href="#DejaVuSans-62"/>
      <use x="226.027344" xlink:href="#DejaVuSans-61"/>
      <use x="287.306641" xlink:href="#DejaVuSans-62"/>
      <use x="350.783203" xlink:href="#DejaVuSans-69"/>
      <use x="378.566406" xlink:href="#DejaVuSans-6c"/>
      <use x="406.349609" xlink:href="#DejaVuSans-69"/>
      <use x="434.132812" xlink:href="#DejaVuSans-74"/>
      <use x="473.341797" xlink:href="#DejaVuSans-79"/>
     </g>
    </g>
   </g>
   <g id="line2d_11">
    <path clip-path="url(#p45e64e4326)" d="M 55.094318 34.209091 
L 56.565898 34.222353 
L 58.037477 34.237781 
L 59.509056 34.25573 
L 60.980636 34.276609 
L 62.452215 34.300896 
L 63.923795 34.329147 
L 65.395374 34.362005 
L 66.866954 34.400221 
L 68.338533 34.444663 
L 69.810112 34.496342 
L 71.281692 34.55643 
L 72.753271 34.626285 
L 74.224851 34.707485 
L 75.69643 34.801856 
L 77.16801 34.911511 
L 78.639589 35.038899 
L 80.111169 35.186847 
L 81.582748 35.358622 
L 83.054327 35.557989 
L 84.525907 35.789285 
L 85.997486 36.057495 
L 87.469066 36.368338 
L 88.940645 36.728358 
L 90.412225 37.145023 
L 91.883804 37.626832 
L 93.355383 38.183412 
L 94.826963 38.825626 
L 96.298542 39.565665 
L 97.770122 40.417123 
L 99.241701 41.39505 
L 100.713281 42.515958 
L 102.18486 43.797774 
L 103.656439 45.259711 
L 105.128019 46.922042 
L 106.599598 48.805746 
L 108.071178 50.931999 
L 109.542757 53.321502 
L 111.014337 55.993611 
L 112.485916 58.96529 
L 113.957495 62.249889 
L 115.429075 65.855808 
L 116.900654 69.78511 
L 118.372234 74.032201 
L 119.843813 78.582722 
L 121.315393 83.412789 
L 122.786972 88.488752 
L 124.258551 93.767586 
L 125.730131 99.197974 
L 127.20171 104.722085 
L 128.67329 110.277915 
L 130.144869 115.802026 
L 131.616449 121.232414 
L 133.088028 126.511248 
L 134.559607 131.587211 
L 136.031187 136.417278 
L 137.502766 140.967799 
L 138.974346 145.21489 
L 140.445925 149.144192 
L 141.917505 152.750111 
L 143.389084 156.03471 
L 144.860663 159.006389 
L 146.332243 161.678498 
L 147.803822 164.068001 
L 149.275402 166.194254 
L 150.746981 168.077958 
L 152.218561 169.740289 
L 153.69014 171.202226 
L 155.161719 172.484042 
L 156.633299 173.60495 
L 158.104878 174.582877 
L 159.576458 175.434335 
L 161.048037 176.174374 
L 162.519617 176.816588 
L 163.991196 177.373168 
L 165.462775 177.854977 
L 166.934355 178.271642 
L 168.405934 178.631662 
L 169.877514 178.942505 
L 171.349093 179.210715 
L 172.820673 179.442011 
L 174.292252 179.641378 
L 175.763831 179.813153 
L 177.235411 179.961101 
L 178.70699 180.088489 
L 180.17857 180.198144 
L 181.650149 180.292515 
L 183.121729 180.373715 
L 184.593308 180.44357 
L 186.064888 180.503658 
L 187.536467 180.555337 
L 189.008046 180.599779 
L 190.479626 180.637995 
L 191.951205 180.670853 
L 193.422785 180.699104 
L 194.894364 180.723391 
L 196.365944 180.74427 
L 197.837523 180.762219 
L 199.309102 180.777647 
L 200.780682 180.790909 
" style="fill:none;stroke:#1f77b4;stroke-linecap:square;stroke-width:1.5;"/>
   </g>
   <g id="line2d_12">
    <path clip-path="url(#p45e64e4326)" d="M 55.094318 166.197621 
L 56.565898 165.322993 
L 58.037477 164.443153 
L 59.509056 163.558069 
L 60.980636 162.667709 
L 62.452215 161.772042 
L 63.923795 160.871037 
L 65.395374 159.964662 
L 66.866954 159.052885 
L 68.338533 158.135673 
L 69.810112 157.212995 
L 71.281692 156.284817 
L 72.753271 155.351107 
L 74.224851 154.411832 
L 75.69643 153.466959 
L 77.16801 152.516454 
L 78.639589 151.560283 
L 80.111169 150.598414 
L 81.582748 149.630812 
L 83.054327 148.657442 
L 84.525907 147.678272 
L 85.997486 146.693265 
L 87.469066 145.702387 
L 88.940645 144.705603 
L 90.412225 143.702879 
L 91.883804 142.694177 
L 93.355383 141.679464 
L 94.826963 140.658703 
L 96.298542 139.631858 
L 97.770122 138.598893 
L 99.241701 137.55977 
L 100.713281 136.514455 
L 102.18486 135.462909 
L 103.656439 134.405096 
L 105.128019 133.340978 
L 106.599598 132.270518 
L 108.071178 131.193677 
L 109.542757 130.110418 
L 111.014337 129.020703 
L 112.485916 127.924493 
L 113.957495 126.821749 
L 115.429075 125.712432 
L 116.900654 124.596504 
L 118.372234 123.473925 
L 119.843813 122.344655 
L 121.315393 121.208654 
L 122.786972 120.065882 
L 124.258551 118.916299 
L 125.730131 117.759864 
L 127.20171 116.596537 
L 128.67329 115.426276 
L 130.144869 114.24904 
L 131.616449 113.064787 
L 133.088028 111.873476 
L 134.559607 110.675064 
L 136.031187 109.46951 
L 137.502766 108.25677 
L 138.974346 107.036803 
L 140.445925 105.809563 
L 141.917505 104.57501 
L 143.389084 103.333098 
L 144.860663 102.083783 
L 146.332243 100.827023 
L 147.803822 99.562772 
L 149.275402 98.290986 
L 150.746981 97.01162 
L 152.218561 95.724628 
L 153.69014 94.429966 
L 155.161719 93.127587 
L 156.633299 91.817446 
L 158.104878 90.499496 
L 159.576458 89.173691 
L 161.048037 87.839984 
L 162.519617 86.498327 
L 163.991196 85.148674 
L 165.462775 83.790977 
L 166.934355 82.425187 
L 168.405934 81.051257 
L 169.877514 79.669138 
L 171.349093 78.278782 
L 172.820673 76.880138 
L 174.292252 75.473159 
L 175.763831 74.057793 
L 177.235411 72.633992 
L 178.70699 71.201704 
L 180.17857 69.76088 
L 181.650149 68.311468 
L 183.121729 66.853417 
L 184.593308 65.386676 
L 186.064888 63.911192 
L 187.536467 62.426915 
L 189.008046 60.933791 
L 190.479626 59.431767 
L 191.951205 57.920791 
L 193.422785 56.40081 
L 194.894364 54.871769 
L 196.365944 53.333614 
L 197.837523 51.786292 
L 199.309102 50.229747 
L 200.780682 48.663925 
" style="fill:none;stroke:#ff7f0e;stroke-linecap:square;stroke-width:1.5;"/>
   </g>
   <g id="patch_3">
    <path d="M 47.81 188.12 
L 47.81 26.88 
" style="fill:none;stroke:#000000;stroke-linecap:square;stroke-linejoin:miter;stroke-width:0.8;"/>
   </g>
   <g id="patch_4">
    <path d="M 208.065 188.12 
L 208.065 26.88 
" style="fill:none;stroke:#000000;stroke-linecap:square;stroke-linejoin:miter;stroke-width:0.8;"/>
   </g>
   <g id="patch_5">
    <path d="M 47.81 188.12 
L 208.065 188.12 
" style="fill:none;stroke:#000000;stroke-linecap:square;stroke-linejoin:miter;stroke-width:0.8;"/>
   </g>
   <g id="patch_6">
    <path d="M 47.81 26.88 
L 208.065 26.88 
" style="fill:none;stroke:#000000;stroke-linecap:square;stroke-linejoin:miter;stroke-width:0.8;"/>
   </g>
   <g id="text_12">
    <!-- Organic Design -->
    <defs>
     <path d="M 39.40625 66.21875 
Q 28.65625 66.21875 22.328125 58.203125 
Q 16.015625 50.203125 16.015625 36.375 
Q 16.015625 22.609375 22.328125 14.59375 
Q 28.65625 6.59375 39.40625 6.59375 
Q 50.140625 6.59375 56.421875 14.59375 
Q 62.703125 22.609375 62.703125 36.375 
Q 62.703125 50.203125 56.421875 58.203125 
Q 50.140625 66.21875 39.40625 66.21875 
z
M 39.40625 74.21875 
Q 54.734375 74.21875 63.90625 63.9375 
Q 73.09375 53.65625 73.09375 36.375 
Q 73.09375 19.140625 63.90625 8.859375 
Q 54.734375 -1.421875 39.40625 -1.421875 
Q 24.03125 -1.421875 14.8125 8.828125 
Q 5.609375 19.09375 5.609375 36.375 
Q 5.609375 53.65625 14.8125 63.9375 
Q 24.03125 74.21875 39.40625 74.21875 
z
" id="DejaVuSans-4f"/>
     <path d="M 45.40625 27.984375 
Q 45.40625 37.75 41.375 43.109375 
Q 37.359375 48.484375 30.078125 48.484375 
Q 22.859375 48.484375 18.828125 43.109375 
Q 14.796875 37.75 14.796875 27.984375 
Q 14.796875 18.265625 18.828125 12.890625 
Q 22.859375 7.515625 30.078125 7.515625 
Q 37.359375 7.515625 41.375 12.890625 
Q 45.40625 18.265625 45.40625 27.984375 
z
M 54.390625 6.78125 
Q 54.390625 -7.171875 48.1875 -13.984375 
Q 42 -20.796875 29.203125 -20.796875 
Q 24.46875 -20.796875 20.265625 -20.09375 
Q 16.0625 -19.390625 12.109375 -17.921875 
L 12.109375 -9.1875 
Q 16.0625 -11.328125 19.921875 -12.34375 
Q 23.78125 -13.375 27.78125 -13.375 
Q 36.625 -13.375 41.015625 -8.765625 
Q 45.40625 -4.15625 45.40625 5.171875 
L 45.40625 9.625 
Q 42.625 4.78125 38.28125 2.390625 
Q 33.9375 0 27.875 0 
Q 17.828125 0 11.671875 7.65625 
Q 5.515625 15.328125 5.515625 27.984375 
Q 5.515625 40.671875 11.671875 48.328125 
Q 17.828125 56 27.875 56 
Q 33.9375 56 38.28125 53.609375 
Q 42.625 51.21875 45.40625 46.390625 
L 45.40625 54.6875 
L 54.390625 54.6875 
z
" id="DejaVuSans-67"/>
     <path d="M 54.890625 33.015625 
L 54.890625 0 
L 45.90625 0 
L 45.90625 32.71875 
Q 45.90625 40.484375 42.875 44.328125 
Q 39.84375 48.1875 33.796875 48.1875 
Q 26.515625 48.1875 22.3125 43.546875 
Q 18.109375 38.921875 18.109375 30.90625 
L 18.109375 0 
L 9.078125 0 
L 9.078125 54.6875 
L 18.109375 54.6875 
L 18.109375 46.1875 
Q 21.34375 51.125 25.703125 53.5625 
Q 30.078125 56 35.796875 56 
Q 45.21875 56 50.046875 50.171875 
Q 54.890625 44.34375 54.890625 33.015625 
z
" id="DejaVuSans-6e"/>
     <path d="M 48.78125 52.59375 
L 48.78125 44.1875 
Q 44.96875 46.296875 41.140625 47.34375 
Q 37.3125 48.390625 33.40625 48.390625 
Q 24.65625 48.390625 19.8125 42.84375 
Q 14.984375 37.3125 14.984375 27.296875 
Q 14.984375 17.28125 19.8125 11.734375 
Q 24.65625 6.203125 33.40625 6.203125 
Q 37.3125 6.203125 41.140625 7.25 
Q 44.96875 8.296875 48.78125 10.40625 
L 48.78125 2.09375 
Q 45.015625 0.34375 40.984375 -0.53125 
Q 36.96875 -1.421875 32.421875 -1.421875 
Q 20.0625 -1.421875 12.78125 6.34375 
Q 5.515625 14.109375 5.515625 27.296875 
Q 5.515625 40.671875 12.859375 48.328125 
Q 20.21875 56 33.015625 56 
Q 37.15625 56 41.109375 55.140625 
Q 45.0625 54.296875 48.78125 52.59375 
z
" id="DejaVuSans-63"/>
     <path id="DejaVuSans-20"/>
     <path d="M 19.671875 64.796875 
L 19.671875 8.109375 
L 31.59375 8.109375 
Q 46.6875 8.109375 53.6875 14.9375 
Q 60.6875 21.78125 60.6875 36.53125 
Q 60.6875 51.171875 53.6875 57.984375 
Q 46.6875 64.796875 31.59375 64.796875 
z
M 9.8125 72.90625 
L 30.078125 72.90625 
Q 51.265625 72.90625 61.171875 64.09375 
Q 71.09375 55.28125 71.09375 36.53125 
Q 71.09375 17.671875 61.125 8.828125 
Q 51.171875 0 30.078125 0 
L 9.8125 0 
z
" id="DejaVuSans-44"/>
     <path d="M 56.203125 29.59375 
L 56.203125 25.203125 
L 14.890625 25.203125 
Q 15.484375 15.921875 20.484375 11.0625 
Q 25.484375 6.203125 34.421875 6.203125 
Q 39.59375 6.203125 44.453125 7.46875 
Q 49.3125 8.734375 54.109375 11.28125 
L 54.109375 2.78125 
Q 49.265625 0.734375 44.1875 -0.34375 
Q 39.109375 -1.421875 33.890625 -1.421875 
Q 20.796875 -1.421875 13.15625 6.1875 
Q 5.515625 13.8125 5.515625 26.8125 
Q 5.515625 40.234375 12.765625 48.109375 
Q 20.015625 56 32.328125 56 
Q 43.359375 56 49.78125 48.890625 
Q 56.203125 41.796875 56.203125 29.59375 
z
M 47.21875 32.234375 
Q 47.125 39.59375 43.09375 43.984375 
Q 39.0625 48.390625 32.421875 48.390625 
Q 24.90625 48.390625 20.390625 44.140625 
Q 15.875 39.890625 15.1875 32.171875 
z
" id="DejaVuSans-65"/>
     <path d="M 44.28125 53.078125 
L 44.28125 44.578125 
Q 40.484375 46.53125 36.375 47.5 
Q 32.28125 48.484375 27.875 48.484375 
Q 21.1875 48.484375 17.84375 46.4375 
Q 14.5 44.390625 14.5 40.28125 
Q 14.5 37.15625 16.890625 35.375 
Q 19.28125 33.59375 26.515625 31.984375 
L 29.59375 31.296875 
Q 39.15625 29.25 43.1875 25.515625 
Q 47.21875 21.78125 47.21875 15.09375 
Q 47.21875 7.46875 41.1875 3.015625 
Q 35.15625 -1.421875 24.609375 -1.421875 
Q 20.21875 -1.421875 15.453125 -0.5625 
Q 10.6875 0.296875 5.421875 2 
L 5.421875 11.28125 
Q 10.40625 8.6875 15.234375 7.390625 
Q 20.0625 6.109375 24.8125 6.109375 
Q 31.15625 6.109375 34.5625 8.28125 
Q 37.984375 10.453125 37.984375 14.40625 
Q 37.984375 18.0625 35.515625 20.015625 
Q 33.0625 21.96875 24.703125 23.78125 
L 21.578125 24.515625 
Q 13.234375 26.265625 9.515625 29.90625 
Q 5.8125 33.546875 5.8125 39.890625 
Q 5.8125 47.609375 11.28125 51.796875 
Q 16.75 56 26.8125 56 
Q 31.78125 56 36.171875 55.265625 
Q 40.578125 54.546875 44.28125 53.078125 
z
" id="DejaVuSans-73"/>
    </defs>
    <g transform="translate(81.871562 20.88)scale(0.12 -0.12)">
     <use xlink:href="#DejaVuSans-4f"/>
     <use x="78.710938" xlink:href="#DejaVuSans-72"/>
     <use x="119.808594" xlink:href="#DejaVuSans-67"/>
     <use x="183.285156" xlink:href="#DejaVuSans-61"/>
     <use x="244.564453" xlink:href="#DejaVuSans-6e"/>
     <use x="307.943359" xlink:href="#DejaVuSans-69"/>
     <use x="335.726562" xlink:href="#DejaVuSans-63"/>
     <use x="390.707031" xlink:href="#DejaVuSans-20"/>
     <use x="422.494141" xlink:href="#DejaVuSans-44"/>
     <use x="499.496094" xlink:href="#DejaVuSans-65"/>
     <use x="561.019531" xlink:href="#DejaVuSans-73"/>
     <use x="613.119141" xlink:href="#DejaVuSans-69"/>
     <use x="640.902344" xlink:href="#DejaVuSans-67"/>
     <use x="704.378906" xlink:href="#DejaVuSans-6e"/>
    </g>
   </g>
  </g>
  <g id="axes_2">
   <g id="patch_7">
    <path d="M 258.395 188.12 
L 418.65 188.12 
L 418.65 26.88 
L 258.395 26.88 
z
" style="fill:#ffffff;"/>
   </g>
   <g id="matplotlib.axis_3">
    <g id="xtick_5">
     <g id="line2d_13">
      <g>
       <use style="stroke:#000000;stroke-width:0.8;" x="265.679318" xlink:href="#mc43d81867d" y="188.12"/>
      </g>
     </g>
     <g id="text_13">
      <!-- 0 -->
      <g transform="translate(262.498068 202.718437)scale(0.1 -0.1)">
       <use xlink:href="#DejaVuSans-30"/>
      </g>
     </g>
    </g>
    <g id="xtick_6">
     <g id="line2d_14">
      <g>
       <use style="stroke:#000000;stroke-width:0.8;" x="314.241439" xlink:href="#mc43d81867d" y="188.12"/>
      </g>
     </g>
     <g id="text_14">
      <!-- 5 -->
      <g transform="translate(311.060189 202.718437)scale(0.1 -0.1)">
       <use xlink:href="#DejaVuSans-35"/>
      </g>
     </g>
    </g>
    <g id="xtick_7">
     <g id="line2d_15">
      <g>
       <use style="stroke:#000000;stroke-width:0.8;" x="362.803561" xlink:href="#mc43d81867d" y="188.12"/>
      </g>
     </g>
     <g id="text_15">
      <!-- 10 -->
      <g transform="translate(356.441061 202.718437)scale(0.1 -0.1)">
       <use xlink:href="#DejaVuSans-31"/>
       <use x="63.623047" xlink:href="#DejaVuSans-30"/>
      </g>
     </g>
    </g>
    <g id="xtick_8">
     <g id="line2d_16">
      <g>
       <use style="stroke:#000000;stroke-width:0.8;" x="411.365682" xlink:href="#mc43d81867d" y="188.12"/>
      </g>
     </g>
     <g id="text_16">
      <!-- 15 -->
      <g transform="translate(405.003182 202.718437)scale(0.1 -0.1)">
       <use xlink:href="#DejaVuSans-31"/>
       <use x="63.623047" xlink:href="#DejaVuSans-35"/>
      </g>
     </g>
    </g>
   </g>
   <g id="matplotlib.axis_4">
    <g id="ytick_7">
     <g id="line2d_17">
      <g>
       <use style="stroke:#000000;stroke-width:0.8;" x="258.395" xlink:href="#m5168413702" y="180.872026"/>
      </g>
     </g>
     <g id="text_17">
      <!-- 0.0 -->
      <g transform="translate(235.491875 184.671245)scale(0.1 -0.1)">
       <use xlink:href="#DejaVuSans-30"/>
       <use x="63.623047" xlink:href="#DejaVuSans-2e"/>
       <use x="95.410156" xlink:href="#DejaVuSans-30"/>
      </g>
     </g>
    </g>
    <g id="ytick_8">
     <g id="line2d_18">
      <g>
       <use style="stroke:#000000;stroke-width:0.8;" x="258.395" xlink:href="#m5168413702" y="151.523216"/>
      </g>
     </g>
     <g id="text_18">
      <!-- 0.2 -->
      <g transform="translate(235.491875 155.322434)scale(0.1 -0.1)">
       <use xlink:href="#DejaVuSans-30"/>
       <use x="63.623047" xlink:href="#DejaVuSans-2e"/>
       <use x="95.410156" xlink:href="#DejaVuSans-32"/>
      </g>
     </g>
    </g>
    <g id="ytick_9">
     <g id="line2d_19">
      <g>
       <use style="stroke:#000000;stroke-width:0.8;" x="258.395" xlink:href="#m5168413702" y="122.174405"/>
      </g>
     </g>
     <g id="text_19">
      <!-- 0.4 -->
      <g transform="translate(235.491875 125.973624)scale(0.1 -0.1)">
       <use xlink:href="#DejaVuSans-30"/>
       <use x="63.623047" xlink:href="#DejaVuSans-2e"/>
       <use x="95.410156" xlink:href="#DejaVuSans-34"/>
      </g>
     </g>
    </g>
    <g id="ytick_10">
     <g id="line2d_20">
      <g>
       <use style="stroke:#000000;stroke-width:0.8;" x="258.395" xlink:href="#m5168413702" y="92.825595"/>
      </g>
     </g>
     <g id="text_20">
      <!-- 0.6 -->
      <g transform="translate(235.491875 96.624814)scale(0.1 -0.1)">
       <use xlink:href="#DejaVuSans-30"/>
       <use x="63.623047" xlink:href="#DejaVuSans-2e"/>
       <use x="95.410156" xlink:href="#DejaVuSans-36"/>
      </g>
     </g>
    </g>
    <g id="ytick_11">
     <g id="line2d_21">
      <g>
       <use style="stroke:#000000;stroke-width:0.8;" x="258.395" xlink:href="#m5168413702" y="63.476784"/>
      </g>
     </g>
     <g id="text_21">
      <!-- 0.8 -->
      <g transform="translate(235.491875 67.276003)scale(0.1 -0.1)">
       <use xlink:href="#DejaVuSans-30"/>
       <use x="63.623047" xlink:href="#DejaVuSans-2e"/>
       <use x="95.410156" xlink:href="#DejaVuSans-38"/>
      </g>
     </g>
    </g>
    <g id="ytick_12">
     <g id="line2d_22">
      <g>
       <use style="stroke:#000000;stroke-width:0.8;" x="258.395" xlink:href="#m5168413702" y="34.127974"/>
      </g>
     </g>
     <g id="text_22">
      <!-- 1.0 -->
      <g transform="translate(235.491875 37.927193)scale(0.1 -0.1)">
       <use xlink:href="#DejaVuSans-31"/>
       <use x="63.623047" xlink:href="#DejaVuSans-2e"/>
       <use x="95.410156" xlink:href="#DejaVuSans-30"/>
      </g>
     </g>
    </g>
    <g id="text_23">
     <!-- Probability -->
     <g transform="translate(229.412187 134.126563)rotate(-90)scale(0.1 -0.1)">
      <use xlink:href="#DejaVuSans-50"/>
      <use x="60.287109" xlink:href="#DejaVuSans-72"/>
      <use x="101.369141" xlink:href="#DejaVuSans-6f"/>
      <use x="162.550781" xlink:href="#DejaVuSans-62"/>
      <use x="226.027344" xlink:href="#DejaVuSans-61"/>
      <use x="287.306641" xlink:href="#DejaVuSans-62"/>
      <use x="350.783203" xlink:href="#DejaVuSans-69"/>
      <use x="378.566406" xlink:href="#DejaVuSans-6c"/>
      <use x="406.349609" xlink:href="#DejaVuSans-69"/>
      <use x="434.132812" xlink:href="#DejaVuSans-74"/>
      <use x="473.341797" xlink:href="#DejaVuSans-79"/>
     </g>
    </g>
   </g>
   <g id="line2d_23">
    <path clip-path="url(#pdc97e3c254)" d="M 265.679318 34.209091 
L 267.150898 34.222353 
L 268.622477 34.237781 
L 270.094056 34.25573 
L 271.565636 34.276609 
L 273.037215 34.300896 
L 274.508795 34.329147 
L 275.980374 34.362005 
L 277.451954 34.400221 
L 278.923533 34.444663 
L 280.395112 34.496342 
L 281.866692 34.55643 
L 283.338271 34.626285 
L 284.809851 34.707485 
L 286.28143 34.801856 
L 287.75301 34.911511 
L 289.224589 35.038899 
L 290.696169 35.186847 
L 292.167748 35.358622 
L 293.639327 35.557989 
L 295.110907 35.789285 
L 296.582486 36.057495 
L 298.054066 36.368338 
L 299.525645 36.728358 
L 300.997225 37.145023 
L 302.468804 37.626832 
L 303.940383 38.183412 
L 305.411963 38.825626 
L 306.883542 39.565665 
L 308.355122 40.417123 
L 309.826701 41.39505 
L 311.298281 42.515958 
L 312.76986 43.797774 
L 314.241439 45.259711 
L 315.713019 46.922042 
L 317.184598 48.805746 
L 318.656178 50.931999 
L 320.127757 53.321502 
L 321.599337 55.993611 
L 323.070916 58.96529 
L 324.542495 62.249889 
L 326.014075 65.855808 
L 327.485654 69.78511 
L 328.957234 74.032201 
L 330.428813 78.582722 
L 331.900393 83.412789 
L 333.371972 88.488752 
L 334.843551 93.767586 
L 336.315131 99.197974 
L 337.78671 104.722085 
L 339.25829 110.277915 
L 340.729869 115.802026 
L 342.201449 121.232414 
L 343.673028 126.511248 
L 345.144607 131.587211 
L 346.616187 136.417278 
L 348.087766 140.967799 
L 349.559346 145.21489 
L 351.030925 149.144192 
L 352.502505 152.750111 
L 353.974084 156.03471 
L 355.445663 159.006389 
L 356.917243 161.678498 
L 358.388822 164.068001 
L 359.860402 166.194254 
L 361.331981 168.077958 
L 362.803561 169.740289 
L 364.27514 171.202226 
L 365.746719 172.484042 
L 367.218299 173.60495 
L 368.689878 174.582877 
L 370.161458 175.434335 
L 371.633037 176.174374 
L 373.104617 176.816588 
L 374.576196 177.373168 
L 376.047775 177.854977 
L 377.519355 178.271642 
L 378.990934 178.631662 
L 380.462514 178.942505 
L 381.934093 179.210715 
L 383.405673 179.442011 
L 384.877252 179.641378 
L 386.348831 179.813153 
L 387.820411 179.961101 
L 389.29199 180.088489 
L 390.76357 180.198144 
L 392.235149 180.292515 
L 393.706729 180.373715 
L 395.178308 180.44357 
L 396.649888 180.503658 
L 398.121467 180.555337 
L 399.593046 180.599779 
L 401.064626 180.637995 
L 402.536205 180.670853 
L 404.007785 180.699104 
L 405.479364 180.723391 
L 406.950944 180.74427 
L 408.422523 180.762219 
L 409.894102 180.777647 
L 411.365682 180.790909 
" style="fill:none;stroke:#1f77b4;stroke-linecap:square;stroke-width:1.5;"/>
   </g>
   <g id="line2d_24">
    <path clip-path="url(#pdc97e3c254)" d="M 265.679318 107.5 
L 267.150898 107.059048 
L 268.622477 106.616771 
L 270.094056 106.173166 
L 271.565636 105.728227 
L 273.037215 105.281951 
L 274.508795 104.834334 
L 275.980374 104.385373 
L 277.451954 103.935062 
L 278.923533 103.483398 
L 280.395112 103.030376 
L 281.866692 102.575994 
L 283.338271 102.120246 
L 284.809851 101.663128 
L 286.28143 101.204637 
L 287.75301 100.744769 
L 289.224589 100.283518 
L 290.696169 99.820882 
L 292.167748 99.356855 
L 293.639327 98.891434 
L 295.110907 98.424614 
L 296.582486 97.956392 
L 298.054066 97.486762 
L 299.525645 97.015722 
L 300.997225 96.543266 
L 302.468804 96.06939 
L 303.940383 95.59409 
L 305.411963 95.117362 
L 306.883542 94.639202 
L 308.355122 94.159605 
L 309.826701 93.678566 
L 311.298281 93.196083 
L 312.76986 92.712149 
L 314.241439 92.226761 
L 315.713019 91.739915 
L 317.184598 91.251606 
L 318.656178 90.761829 
L 320.127757 90.270581 
L 321.599337 89.777856 
L 323.070916 89.283651 
L 324.542495 88.787961 
L 326.014075 88.290781 
L 327.485654 87.792108 
L 328.957234 87.291936 
L 330.428813 86.79026 
L 331.900393 86.287078 
L 333.371972 85.782383 
L 334.843551 85.276172 
L 336.315131 84.76844 
L 337.78671 84.259182 
L 339.25829 83.748394 
L 340.729869 83.236071 
L 342.201449 82.722208 
L 343.673028 82.206802 
L 345.144607 81.689846 
L 346.616187 81.171338 
L 348.087766 80.651271 
L 349.559346 80.129641 
L 351.030925 79.606444 
L 352.502505 79.081675 
L 353.974084 78.555329 
L 355.445663 78.027401 
L 356.917243 77.497887 
L 358.388822 76.966782 
L 359.860402 76.434081 
L 361.331981 75.899779 
L 362.803561 75.363871 
L 364.27514 74.826354 
L 365.746719 74.287221 
L 367.218299 73.746468 
L 368.689878 73.20409 
L 370.161458 72.660082 
L 371.633037 72.11444 
L 373.104617 71.567158 
L 374.576196 71.018231 
L 376.047775 70.467656 
L 377.519355 69.915425 
L 378.990934 69.361535 
L 380.462514 68.805981 
L 381.934093 68.248758 
L 383.405673 67.68986 
L 384.877252 67.129282 
L 386.348831 66.56702 
L 387.820411 66.003069 
L 389.29199 65.437423 
L 390.76357 64.870077 
L 392.235149 64.301027 
L 393.706729 63.730266 
L 395.178308 63.15779 
L 396.649888 62.583595 
L 398.121467 62.007673 
L 399.593046 61.430022 
L 401.064626 60.850634 
L 402.536205 60.269505 
L 404.007785 59.686631 
L 405.479364 59.102004 
L 406.950944 58.515621 
L 408.422523 57.927476 
L 409.894102 57.337564 
L 411.365682 56.745879 
" style="fill:none;stroke:#ff7f0e;stroke-linecap:square;stroke-width:1.5;"/>
   </g>
   <g id="patch_8">
    <path d="M 258.395 188.12 
L 258.395 26.88 
" style="fill:none;stroke:#000000;stroke-linecap:square;stroke-linejoin:miter;stroke-width:0.8;"/>
   </g>
   <g id="patch_9">
    <path d="M 418.65 188.12 
L 418.65 26.88 
" style="fill:none;stroke:#000000;stroke-linecap:square;stroke-linejoin:miter;stroke-width:0.8;"/>
   </g>
   <g id="patch_10">
    <path d="M 258.395 188.12 
L 418.65 188.12 
" style="fill:none;stroke:#000000;stroke-linecap:square;stroke-linejoin:miter;stroke-width:0.8;"/>
   </g>
   <g id="patch_11">
    <path d="M 258.395 26.88 
L 418.65 26.88 
" style="fill:none;stroke:#000000;stroke-linecap:square;stroke-linejoin:miter;stroke-width:0.8;"/>
   </g>
   <g id="text_24">
    <!-- User Centered Design -->
    <defs>
     <path d="M 8.6875 72.90625 
L 18.609375 72.90625 
L 18.609375 28.609375 
Q 18.609375 16.890625 22.84375 11.734375 
Q 27.09375 6.59375 36.625 6.59375 
Q 46.09375 6.59375 50.34375 11.734375 
Q 54.59375 16.890625 54.59375 28.609375 
L 54.59375 72.90625 
L 64.5 72.90625 
L 64.5 27.390625 
Q 64.5 13.140625 57.4375 5.859375 
Q 50.390625 -1.421875 36.625 -1.421875 
Q 22.796875 -1.421875 15.734375 5.859375 
Q 8.6875 13.140625 8.6875 27.390625 
z
" id="DejaVuSans-55"/>
     <path d="M 64.40625 67.28125 
L 64.40625 56.890625 
Q 59.421875 61.53125 53.78125 63.8125 
Q 48.140625 66.109375 41.796875 66.109375 
Q 29.296875 66.109375 22.65625 58.46875 
Q 16.015625 50.828125 16.015625 36.375 
Q 16.015625 21.96875 22.65625 14.328125 
Q 29.296875 6.6875 41.796875 6.6875 
Q 48.140625 6.6875 53.78125 8.984375 
Q 59.421875 11.28125 64.40625 15.921875 
L 64.40625 5.609375 
Q 59.234375 2.09375 53.4375 0.328125 
Q 47.65625 -1.421875 41.21875 -1.421875 
Q 24.65625 -1.421875 15.125 8.703125 
Q 5.609375 18.84375 5.609375 36.375 
Q 5.609375 53.953125 15.125 64.078125 
Q 24.65625 74.21875 41.21875 74.21875 
Q 47.75 74.21875 53.53125 72.484375 
Q 59.328125 70.75 64.40625 67.28125 
z
" id="DejaVuSans-43"/>
     <path d="M 45.40625 46.390625 
L 45.40625 75.984375 
L 54.390625 75.984375 
L 54.390625 0 
L 45.40625 0 
L 45.40625 8.203125 
Q 42.578125 3.328125 38.25 0.953125 
Q 33.9375 -1.421875 27.875 -1.421875 
Q 17.96875 -1.421875 11.734375 6.484375 
Q 5.515625 14.40625 5.515625 27.296875 
Q 5.515625 40.1875 11.734375 48.09375 
Q 17.96875 56 27.875 56 
Q 33.9375 56 38.25 53.625 
Q 42.578125 51.265625 45.40625 46.390625 
z
M 14.796875 27.296875 
Q 14.796875 17.390625 18.875 11.75 
Q 22.953125 6.109375 30.078125 6.109375 
Q 37.203125 6.109375 41.296875 11.75 
Q 45.40625 17.390625 45.40625 27.296875 
Q 45.40625 37.203125 41.296875 42.84375 
Q 37.203125 48.484375 30.078125 48.484375 
Q 22.953125 48.484375 18.875 42.84375 
Q 14.796875 37.203125 14.796875 27.296875 
z
" id="DejaVuSans-64"/>
    </defs>
    <g transform="translate(272.62375 20.88)scale(0.12 -0.12)">
     <use xlink:href="#DejaVuSans-55"/>
     <use x="73.193359" xlink:href="#DejaVuSans-73"/>
     <use x="125.292969" xlink:href="#DejaVuSans-65"/>
     <use x="186.816406" xlink:href="#DejaVuSans-72"/>
     <use x="227.929688" xlink:href="#DejaVuSans-20"/>
     <use x="259.716797" xlink:href="#DejaVuSans-43"/>
     <use x="329.541016" xlink:href="#DejaVuSans-65"/>
     <use x="391.064453" xlink:href="#DejaVuSans-6e"/>
     <use x="454.443359" xlink:href="#DejaVuSans-74"/>
     <use x="493.652344" xlink:href="#DejaVuSans-65"/>
     <use x="555.175781" xlink:href="#DejaVuSans-72"/>
     <use x="596.257812" xlink:href="#DejaVuSans-65"/>
     <use x="657.78125" xlink:href="#DejaVuSans-64"/>
     <use x="721.257812" xlink:href="#DejaVuSans-20"/>
     <use x="753.044922" xlink:href="#DejaVuSans-44"/>
     <use x="830.046875" xlink:href="#DejaVuSans-65"/>
     <use x="891.570312" xlink:href="#DejaVuSans-73"/>
     <use x="943.669922" xlink:href="#DejaVuSans-69"/>
     <use x="971.453125" xlink:href="#DejaVuSans-67"/>
     <use x="1034.929688" xlink:href="#DejaVuSans-6e"/>
    </g>
   </g>
  </g>
  <g id="axes_3">
   <g id="line2d_25">
    <path clip-path="url(#pb4e01a81e2)" d="M 549.1075 34.209091 
L 549.1075 34.209091 
" style="fill:none;stroke:#1f77b4;stroke-linecap:square;stroke-width:1.5;"/>
   </g>
   <g id="line2d_26">
    <path clip-path="url(#pb4e01a81e2)" d="M 549.1075 180.790909 
L 549.1075 180.790909 
" style="fill:none;stroke:#ff7f0e;stroke-linecap:square;stroke-width:1.5;"/>
   </g>
   <g id="legend_1">
    <g id="patch_12">
     <path d="M 458.356875 140.474844 
L 622.235 140.474844 
Q 624.235 140.474844 624.235 138.474844 
L 624.235 76.525156 
Q 624.235 74.525156 622.235 74.525156 
L 458.356875 74.525156 
Q 456.356875 74.525156 456.356875 76.525156 
L 456.356875 138.474844 
Q 456.356875 140.474844 458.356875 140.474844 
z
" style="fill:#ffffff;opacity:0.8;stroke:#cccccc;stroke-linejoin:miter;"/>
    </g>
    <g id="line2d_27">
     <path d="M 460.356875 89.262344 
L 480.356875 89.262344 
" style="fill:none;stroke:#1f77b4;stroke-linecap:square;stroke-width:1.5;"/>
    </g>
    <g id="line2d_28"/>
    <g id="text_25">
     <!-- of being able to change -->
     <defs>
      <path d="M 37.109375 75.984375 
L 37.109375 68.5 
L 28.515625 68.5 
Q 23.6875 68.5 21.796875 66.546875 
Q 19.921875 64.59375 19.921875 59.515625 
L 19.921875 54.6875 
L 34.71875 54.6875 
L 34.71875 47.703125 
L 19.921875 47.703125 
L 19.921875 0 
L 10.890625 0 
L 10.890625 47.703125 
L 2.296875 47.703125 
L 2.296875 54.6875 
L 10.890625 54.6875 
L 10.890625 58.5 
Q 10.890625 67.625 15.140625 71.796875 
Q 19.390625 75.984375 28.609375 75.984375 
z
" id="DejaVuSans-66"/>
      <path d="M 54.890625 33.015625 
L 54.890625 0 
L 45.90625 0 
L 45.90625 32.71875 
Q 45.90625 40.484375 42.875 44.328125 
Q 39.84375 48.1875 33.796875 48.1875 
Q 26.515625 48.1875 22.3125 43.546875 
Q 18.109375 38.921875 18.109375 30.90625 
L 18.109375 0 
L 9.078125 0 
L 9.078125 75.984375 
L 18.109375 75.984375 
L 18.109375 46.1875 
Q 21.34375 51.125 25.703125 53.5625 
Q 30.078125 56 35.796875 56 
Q 45.21875 56 50.046875 50.171875 
Q 54.890625 44.34375 54.890625 33.015625 
z
" id="DejaVuSans-68"/>
     </defs>
     <g transform="translate(488.356875 86.123594)scale(0.1 -0.1)">
      <use xlink:href="#DejaVuSans-6f"/>
      <use x="61.181641" xlink:href="#DejaVuSans-66"/>
      <use x="96.386719" xlink:href="#DejaVuSans-20"/>
      <use x="128.173828" xlink:href="#DejaVuSans-62"/>
      <use x="191.650391" xlink:href="#DejaVuSans-65"/>
      <use x="253.173828" xlink:href="#DejaVuSans-69"/>
      <use x="280.957031" xlink:href="#DejaVuSans-6e"/>
      <use x="344.335938" xlink:href="#DejaVuSans-67"/>
      <use x="407.8125" xlink:href="#DejaVuSans-20"/>
      <use x="439.599609" xlink:href="#DejaVuSans-61"/>
      <use x="500.878906" xlink:href="#DejaVuSans-62"/>
      <use x="564.355469" xlink:href="#DejaVuSans-6c"/>
      <use x="592.138672" xlink:href="#DejaVuSans-65"/>
      <use x="653.662109" xlink:href="#DejaVuSans-20"/>
      <use x="685.449219" xlink:href="#DejaVuSans-74"/>
      <use x="724.658203" xlink:href="#DejaVuSans-6f"/>
      <use x="785.839844" xlink:href="#DejaVuSans-20"/>
      <use x="817.626953" xlink:href="#DejaVuSans-63"/>
      <use x="872.607422" xlink:href="#DejaVuSans-68"/>
      <use x="935.986328" xlink:href="#DejaVuSans-61"/>
      <use x="997.265625" xlink:href="#DejaVuSans-6e"/>
      <use x="1060.644531" xlink:href="#DejaVuSans-67"/>
      <use x="1124.121094" xlink:href="#DejaVuSans-65"/>
     </g>
     <!-- core paradigm -->
     <defs>
      <path d="M 18.109375 8.203125 
L 18.109375 -20.796875 
L 9.078125 -20.796875 
L 9.078125 54.6875 
L 18.109375 54.6875 
L 18.109375 46.390625 
Q 20.953125 51.265625 25.265625 53.625 
Q 29.59375 56 35.59375 56 
Q 45.5625 56 51.78125 48.09375 
Q 58.015625 40.1875 58.015625 27.296875 
Q 58.015625 14.40625 51.78125 6.484375 
Q 45.5625 -1.421875 35.59375 -1.421875 
Q 29.59375 -1.421875 25.265625 0.953125 
Q 20.953125 3.328125 18.109375 8.203125 
z
M 48.6875 27.296875 
Q 48.6875 37.203125 44.609375 42.84375 
Q 40.53125 48.484375 33.40625 48.484375 
Q 26.265625 48.484375 22.1875 42.84375 
Q 18.109375 37.203125 18.109375 27.296875 
Q 18.109375 17.390625 22.1875 11.75 
Q 26.265625 6.109375 33.40625 6.109375 
Q 40.53125 6.109375 44.609375 11.75 
Q 48.6875 17.390625 48.6875 27.296875 
z
" id="DejaVuSans-70"/>
      <path d="M 52 44.1875 
Q 55.375 50.25 60.0625 53.125 
Q 64.75 56 71.09375 56 
Q 79.640625 56 84.28125 50.015625 
Q 88.921875 44.046875 88.921875 33.015625 
L 88.921875 0 
L 79.890625 0 
L 79.890625 32.71875 
Q 79.890625 40.578125 77.09375 44.375 
Q 74.3125 48.1875 68.609375 48.1875 
Q 61.625 48.1875 57.5625 43.546875 
Q 53.515625 38.921875 53.515625 30.90625 
L 53.515625 0 
L 44.484375 0 
L 44.484375 32.71875 
Q 44.484375 40.625 41.703125 44.40625 
Q 38.921875 48.1875 33.109375 48.1875 
Q 26.21875 48.1875 22.15625 43.53125 
Q 18.109375 38.875 18.109375 30.90625 
L 18.109375 0 
L 9.078125 0 
L 9.078125 54.6875 
L 18.109375 54.6875 
L 18.109375 46.1875 
Q 21.1875 51.21875 25.484375 53.609375 
Q 29.78125 56 35.6875 56 
Q 41.65625 56 45.828125 52.96875 
Q 50 49.953125 52 44.1875 
z
" id="DejaVuSans-6d"/>
     </defs>
     <g transform="translate(488.356875 97.321406)scale(0.1 -0.1)">
      <use xlink:href="#DejaVuSans-63"/>
      <use x="54.980469" xlink:href="#DejaVuSans-6f"/>
      <use x="116.162109" xlink:href="#DejaVuSans-72"/>
      <use x="157.244141" xlink:href="#DejaVuSans-65"/>
      <use x="218.767578" xlink:href="#DejaVuSans-20"/>
      <use x="250.554688" xlink:href="#DejaVuSans-70"/>
      <use x="314.03125" xlink:href="#DejaVuSans-61"/>
      <use x="375.310547" xlink:href="#DejaVuSans-72"/>
      <use x="416.423828" xlink:href="#DejaVuSans-61"/>
      <use x="477.703125" xlink:href="#DejaVuSans-64"/>
      <use x="541.179688" xlink:href="#DejaVuSans-69"/>
      <use x="568.962891" xlink:href="#DejaVuSans-67"/>
      <use x="632.439453" xlink:href="#DejaVuSans-6d"/>
     </g>
    </g>
    <g id="line2d_29">
     <path d="M 460.356875 120.737188 
L 480.356875 120.737188 
" style="fill:none;stroke:#ff7f0e;stroke-linecap:square;stroke-width:1.5;"/>
    </g>
    <g id="line2d_30"/>
    <g id="text_26">
     <!-- of finding -->
     <g transform="translate(488.356875 111.999531)scale(0.1 -0.1)">
      <use xlink:href="#DejaVuSans-6f"/>
      <use x="61.181641" xlink:href="#DejaVuSans-66"/>
      <use x="96.386719" xlink:href="#DejaVuSans-20"/>
      <use x="128.173828" xlink:href="#DejaVuSans-66"/>
      <use x="163.378906" xlink:href="#DejaVuSans-69"/>
      <use x="191.162109" xlink:href="#DejaVuSans-6e"/>
      <use x="254.541016" xlink:href="#DejaVuSans-64"/>
      <use x="318.017578" xlink:href="#DejaVuSans-69"/>
      <use x="345.800781" xlink:href="#DejaVuSans-6e"/>
      <use x="409.179688" xlink:href="#DejaVuSans-67"/>
     </g>
     <!-- things that need changing -->
     <g transform="translate(488.356875 123.197344)scale(0.1 -0.1)">
      <use xlink:href="#DejaVuSans-74"/>
      <use x="39.208984" xlink:href="#DejaVuSans-68"/>
      <use x="102.587891" xlink:href="#DejaVuSans-69"/>
      <use x="130.371094" xlink:href="#DejaVuSans-6e"/>
      <use x="193.75" xlink:href="#DejaVuSans-67"/>
      <use x="257.226562" xlink:href="#DejaVuSans-73"/>
      <use x="309.326172" xlink:href="#DejaVuSans-20"/>
      <use x="341.113281" xlink:href="#DejaVuSans-74"/>
      <use x="380.322266" xlink:href="#DejaVuSans-68"/>
      <use x="443.701172" xlink:href="#DejaVuSans-61"/>
      <use x="504.980469" xlink:href="#DejaVuSans-74"/>
      <use x="544.189453" xlink:href="#DejaVuSans-20"/>
      <use x="575.976562" xlink:href="#DejaVuSans-6e"/>
      <use x="639.355469" xlink:href="#DejaVuSans-65"/>
      <use x="700.878906" xlink:href="#DejaVuSans-65"/>
      <use x="762.402344" xlink:href="#DejaVuSans-64"/>
      <use x="825.878906" xlink:href="#DejaVuSans-20"/>
      <use x="857.666016" xlink:href="#DejaVuSans-63"/>
      <use x="912.646484" xlink:href="#DejaVuSans-68"/>
      <use x="976.025391" xlink:href="#DejaVuSans-61"/>
      <use x="1037.304688" xlink:href="#DejaVuSans-6e"/>
      <use x="1100.683594" xlink:href="#DejaVuSans-67"/>
      <use x="1164.160156" xlink:href="#DejaVuSans-69"/>
      <use x="1191.943359" xlink:href="#DejaVuSans-6e"/>
      <use x="1255.322266" xlink:href="#DejaVuSans-67"/>
     </g>
     <!-- in core paradigm -->
     <g transform="translate(488.356875 134.395156)scale(0.1 -0.1)">
      <use xlink:href="#DejaVuSans-69"/>
      <use x="27.783203" xlink:href="#DejaVuSans-6e"/>
      <use x="91.162109" xlink:href="#DejaVuSans-20"/>
      <use x="122.949219" xlink:href="#DejaVuSans-63"/>
      <use x="177.929688" xlink:href="#DejaVuSans-6f"/>
      <use x="239.111328" xlink:href="#DejaVuSans-72"/>
      <use x="280.193359" xlink:href="#DejaVuSans-65"/>
      <use x="341.716797" xlink:href="#DejaVuSans-20"/>
      <use x="373.503906" xlink:href="#DejaVuSans-70"/>
      <use x="436.980469" xlink:href="#DejaVuSans-61"/>
      <use x="498.259766" xlink:href="#DejaVuSans-72"/>
      <use x="539.373047" xlink:href="#DejaVuSans-61"/>
      <use x="600.652344" xlink:href="#DejaVuSans-64"/>
      <use x="664.128906" xlink:href="#DejaVuSans-69"/>
      <use x="691.912109" xlink:href="#DejaVuSans-67"/>
      <use x="755.388672" xlink:href="#DejaVuSans-6d"/>
     </g>
    </g>
   </g>
  </g>
 </g>
 <defs>
  <clipPath id="p45e64e4326">
   <rect height="161.24" width="160.255" x="47.81" y="26.88"/>
  </clipPath>
  <clipPath id="pdc97e3c254">
   <rect height="161.24" width="160.255" x="258.395" y="26.88"/>
  </clipPath>
  <clipPath id="pb4e01a81e2">
   <rect height="161.24" width="160.255" x="468.98" y="26.88"/>
  </clipPath>
 </defs>
</svg>
