<?xml version="1.0" encoding="iso-8859-1"?>
<!-- Generator: Adobe Illustrator 16.0.0, SVG Export Plug-In . SVG Version: 6.00 Build 0)  -->
<!DOCTYPE svg PUBLIC "-//W3C//DTD SVG 1.1//EN" "http://www.w3.org/Graphics/SVG/1.1/DTD/svg11.dtd">
<svg version="1.1" id="Capa_1" xmlns="http://www.w3.org/2000/svg" xmlns:xlink="http://www.w3.org/1999/xlink" x="0px" y="0px"
	 width="540.016px" height="540.016px" viewBox="0 0 540.016 540.016" style="enable-background:new 0 0 540.016 540.016;"
	 xml:space="preserve">
<g>
	<g>
		<path d="M270.008,540.016c116.273,0,207.352-88.33,207.352-201.084c0-10.031-0.759-20.895-2.117-32.271
			c-1.677-14.07-4.333-28.973-7.87-44.352c-3.941-17.111-8.941-34.762-14.884-52.399c-4.615-13.696-9.786-27.368-15.429-40.765
			c-4.389-10.423-9.076-20.649-14.003-30.601c-1.757-3.543-3.525-7.074-5.343-10.538c-4.792-9.119-10.588-19.419-17.308-30.11
			c-4.761-7.583-10.006-15.355-15.679-23.055c-2.98-4.045-6.084-8.065-9.303-12.031C348.087,29.167,312.218,0,270.008,0
			c-41.004,0-76.017,27.521-103.048,59.921c-2.98,3.573-5.863,7.196-8.648,10.856c-7.032,9.247-13.433,18.679-19.149,27.81
			c-6.53,10.44-12.179,20.489-16.86,29.406c-2.032,3.861-4.015,7.797-5.967,11.763c-3.476,7.057-6.793,14.271-10,21.579
			c-0.422,0.967-0.857,1.922-1.273,2.895C91.175,196.366,80,230.319,72.625,262.376c-3.525,15.325-6.169,30.185-7.846,44.21
			c-1.365,11.402-2.124,22.283-2.124,32.332C62.656,451.686,153.734,540.016,270.008,540.016z M455.462,264.935
			c3.121,13.544,5.558,26.72,7.191,39.222c-4.443-3.402-8.317-9.094-10.312-16.102C449.667,278.631,451.117,269.665,455.462,264.935
			z M391.839,107.259c5.771,9.382,10.82,18.396,15.043,26.438c0.954,1.823,1.872,3.702,2.815,5.545
			c-5.013-2.222-10.025-6.641-13.642-12.712C392.059,119.823,390.725,112.748,391.839,107.259z M389.293,150.644
			c5.098,12.038,2.809,24.192-5.11,27.148s-18.471-4.407-23.568-16.444c-5.098-12.038-2.809-24.192,5.11-27.148
			S384.194,138.605,389.293,150.644z M175.02,69.247c21.401,22.356,54.296,38.115,95.233,37.589
			c40.123-0.514,73.697-14.92,96.519-35.397c3.494,4.352,6.848,8.776,10.049,13.226c-22.638,24.902-60.771,42.54-106.574,42.54
			c-47.669,0-84.444-19.107-104.823-45.619C168.501,77.43,171.696,73.299,175.02,69.247z M315.571,201.531
			c-9.07,1.31-18.25-8.807-20.508-22.589c-2.259-13.782,3.262-26.022,12.325-27.332s18.25,8.807,20.508,22.589
			C330.155,187.981,324.641,200.222,315.571,201.531z M250.742,178.942c-2.258,13.782-11.438,23.898-20.508,22.589
			s-14.584-13.544-12.326-27.332c2.258-13.782,11.438-23.898,20.508-22.589S253,165.154,250.742,178.942z M156.512,150.644
			c5.098-12.038,15.649-19.4,23.568-16.444s10.208,15.11,5.11,27.148c-5.098,12.037-15.649,19.4-23.568,16.444
			S151.415,162.682,156.512,150.644z M133.134,133.697c3.709-7.062,8.042-14.865,12.95-23.012
			c0.092,4.854-1.389,10.472-4.596,15.852c-2.785,4.675-6.414,8.348-10.214,10.838C131.898,136.151,132.498,134.902,133.134,133.697
			z M113.201,176.365l16.089,46.641c1.102,3.195,4.688,5.294,8.017,4.683l22.638-4.144c3.323-0.606,7.405,1.261,9.119,4.174
			l15.747,26.849c1.707,2.913,5.471,3.916,8.409,2.239l24.994-14.32c2.931-1.684,7.35-1.212,9.865,1.047l40.766,36.592
			c2.515,2.258,6.61,2.275,9.149,0.043l41.671-36.685c2.54-2.233,6.971-2.681,9.902-1.003l24.994,14.314
			c2.932,1.683,6.695,0.679,8.409-2.234l15.747-26.848c1.707-2.913,5.789-4.786,9.118-4.174l22.638,4.143
			c3.323,0.606,6.916-1.487,8.018-4.682l12.534-36.334c5.709,14.504,10.789,29.217,15.22,43.818l-11.561,33.991
			c-1.089,3.2-4.646,5.195-7.943,4.449l-28.403-6.384c-3.299-0.74-7.441,0.968-9.253,3.819l-23.574,37.05
			c-1.812,2.852-5.563,3.643-8.379,1.77l-28.941-19.285c-2.815-1.873-7.136-1.566-9.651,0.691l-40.888,36.666
			c-2.515,2.258-6.585,2.24-9.082-0.037l-40.178-36.598c-2.497-2.277-6.799-2.588-9.602-0.703l-28.562,19.234
			c-2.803,1.885-6.542,1.102-8.348-1.756l-23.403-37.032c-1.806-2.858-5.943-4.571-9.241-3.831l-28.299,6.377
			c-3.298,0.74-6.848-1.248-7.931-4.449l-15.496-45.79C102.148,204.499,107.406,190.301,113.201,176.365z M433.161,350.877
			c-8.434,0.582-16.451-9.48-17.913-22.473c-1.463-12.992,4.186-23.99,12.619-24.572c8.434-0.58,16.45,9.48,17.913,22.473
			C447.243,339.299,441.588,350.295,433.161,350.877z M379.078,387.463c-8.396,0.936-16.842-8.77-18.855-21.689
			s3.164-24.15,11.561-25.086c8.403-0.936,16.843,8.77,18.855,21.689C392.652,375.297,387.481,386.525,379.078,387.463z
			 M322.413,385.309c-0.287,13.965-7.943,24.994-17.099,24.627c-9.156-0.367-16.341-11.982-16.053-25.949
			c0.287-13.965,7.943-24.994,17.099-24.627C315.517,359.727,322.701,371.342,322.413,385.309z M257.021,383.992
			c0.288,13.967-6.897,25.582-16.053,25.949c-9.155,0.367-16.812-10.66-17.099-24.627c-0.288-13.965,6.897-25.582,16.053-25.949
			C249.078,358.998,256.733,370.027,257.021,383.992z M186.06,365.773c-2.013,12.92-10.459,22.625-18.855,21.689
			c-8.396-0.938-13.574-12.174-11.561-25.086c2.013-12.92,10.459-22.625,18.855-21.689
			C182.902,341.623,188.073,352.859,186.06,365.773z M131.041,328.404c-1.463,12.992-9.48,23.055-17.913,22.473
			c-8.434-0.582-14.083-11.578-12.62-24.572c1.463-12.992,9.48-23.053,17.913-22.473
			C126.849,304.414,132.503,315.412,131.041,328.404z M84.578,264.824c4.437,4.7,5.942,13.727,3.243,23.23
			c-2.013,7.1-5.96,12.846-10.477,16.23C78.984,291.709,81.438,278.447,84.578,264.824z M89.694,412.359
			c-5.178-12.197-9.058-25.092-11.548-38.502c26.505,47.486,102.418,99.139,192.07,99.139c89.242,0,164.744-51.176,191.538-98.477
			c-2.613,13.775-6.689,26.988-12.137,39.467c-33.818,41.396-101.469,80.424-179.401,80.424
			C191.268,494.41,122.987,454.348,89.694,412.359z"/>
	</g>
</g>
<g>
</g>
<g>
</g>
<g>
</g>
<g>
</g>
<g>
</g>
<g>
</g>
<g>
</g>
<g>
</g>
<g>
</g>
<g>
</g>
<g>
</g>
<g>
</g>
<g>
</g>
<g>
</g>
<g>
</g>
</svg>
